<svg width="673" height="739" viewBox="0 0 673 739" fill="none" xmlns="http://www.w3.org/2000/svg">
<g clip-path="url(#clip0)">
<path d="M467 157.804C420.38 150.364 367.29 146.394 312 146.394C261.4 146.394 212.65 149.714 169.02 155.974C169.03 155.304 169.04 154.634 169.07 153.964C170.226 115.074 186.549 78.1783 214.55 51.1639C242.55 24.1495 280.007 9.1592 318.914 9.39689C357.821 9.63458 395.091 25.0814 422.759 52.4359C450.428 79.7904 466.299 116.882 466.98 155.784C466.99 156.464 467 157.134 467 157.804Z" fill="#638FFF"/>
<g opacity="0.1">
<path opacity="0.1" d="M337.55 9.34133C316.857 6.54627 295.808 8.13043 275.766 13.9911C255.724 19.8518 237.138 29.8583 221.211 43.362C205.284 56.8656 192.372 73.5652 183.312 92.3784C174.252 111.192 169.246 131.698 168.619 152.57C168.589 153.24 168.579 153.91 168.569 154.58C181.531 152.72 194.954 151.127 208.734 149.796C210.42 115.025 224.225 81.9407 247.755 56.2849C271.285 30.6292 303.054 14.0206 337.55 9.34133V9.34133Z" fill="white"/>
</g>
<path d="M532.18 169.624C510.72 163.806 488.953 159.186 466.98 155.784C430.966 150.203 394.658 146.714 358.24 145.334C343.07 144.714 327.62 144.394 312 144.394C299.62 144.394 287.34 144.594 275.23 144.994C239.706 146.044 204.266 149.038 169.07 153.964C143.016 157.552 117.214 162.782 91.8199 169.624C32.6099 185.994 3.05176e-05 207.934 3.05176e-05 231.394C3.05176e-05 254.854 32.6099 276.794 91.8199 293.164C133.46 304.684 184.8 312.534 240.74 316.134C263.83 317.634 287.7 318.394 312 318.394C336.38 318.394 360.33 317.624 383.49 316.124C434.4 312.834 481.5 306.024 520.92 296.124C521.13 296.064 521.33 296.014 521.54 295.964C524.2 295.304 526.82 294.614 529.41 293.924C530.34 293.664 531.26 293.414 532.18 293.164C532.232 293.143 532.285 293.126 532.34 293.114C533.22 292.874 534.09 292.624 534.96 292.384C536.7 291.884 538.42 291.394 540.11 290.884C540.19 290.864 540.26 290.844 540.33 290.824C541.8 290.384 543.24 289.944 544.67 289.504C545.84 289.134 547 288.774 548.15 288.404C548.99 288.134 549.82 287.864 550.64 287.594C551.24 287.394 551.83 287.204 552.41 287.004C553.2 286.744 553.99 286.474 554.77 286.204C555.1 286.094 555.43 285.984 555.75 285.864C556.5 285.614 557.23 285.354 557.96 285.094C558.75 284.814 559.54 284.524 560.32 284.244C560.97 284.014 561.62 283.774 562.26 283.534C562.8 283.324 563.33 283.124 563.87 282.924C565.34 282.374 566.78 281.804 568.2 281.244C568.91 280.954 569.62 280.674 570.32 280.384C571.01 280.104 571.71 279.814 572.39 279.524C573.51 279.054 574.61 278.584 575.69 278.114C576.21 277.874 576.74 277.644 577.25 277.424C577.64 277.244 578.02 277.074 578.41 276.894C578.69 276.774 578.97 276.644 579.24 276.514C580.25 276.054 581.25 275.584 582.23 275.114C585.99 273.314 589.5 271.474 592.76 269.594C613.21 257.884 624 244.894 624 231.394C624 207.934 591.39 185.994 532.18 169.624ZM531.64 291.244C489.95 302.774 438.47 310.624 382.38 314.194C359.57 315.644 335.99 316.394 312 316.394C288.09 316.394 264.59 315.654 241.85 314.204C185.67 310.644 134.11 302.794 92.3599 291.244C34.0899 275.124 2.00003 253.874 2.00003 231.394C2.00329 229.408 2.25191 227.429 2.74026 225.504C7.83987 205.224 39.21 186.244 92.3599 171.544C117.562 164.755 143.166 159.555 169.02 155.974C204.428 151.02 240.082 148.016 275.82 146.974C287.74 146.584 299.8 146.391 312 146.394C327.41 146.394 342.65 146.704 357.63 147.304C394.26 148.672 430.779 152.178 467 157.804C488.783 161.191 510.363 165.778 531.64 171.544C584.78 186.244 616.14 205.214 621.25 225.484C621.746 227.415 621.998 229.4 622 231.394C622 253.874 589.91 275.124 531.64 291.244V291.244Z" fill="#3F3D56"/>
<path d="M623.43 232.304C623.43 245.664 612.42 258.304 592.76 269.594C589.49 271.474 585.97 273.314 582.23 275.114C581.25 275.584 580.25 276.054 579.24 276.514C578.97 276.644 578.69 276.774 578.41 276.894C578.02 277.074 577.64 277.244 577.25 277.424C576.74 277.644 576.21 277.874 575.69 278.114C574.61 278.584 573.51 279.054 572.39 279.524C571.71 279.814 571.01 280.104 570.32 280.384C569.62 280.674 568.91 280.954 568.2 281.244C566.78 281.804 565.34 282.374 563.87 282.924C563.33 283.124 562.8 283.324 562.26 283.534C561.62 283.774 560.97 284.014 560.32 284.244C559.54 284.524 558.75 284.814 557.96 285.094C557.23 285.354 556.5 285.614 555.75 285.864C555.43 285.984 555.1 286.094 554.77 286.204C553.99 286.474 553.2 286.744 552.41 287.004C551.83 287.204 551.24 287.394 550.64 287.594C549.82 287.864 548.99 288.134 548.15 288.404C547 288.774 545.84 289.134 544.67 289.504C543.24 289.944 541.8 290.384 540.33 290.824C540.26 290.844 540.19 290.864 540.11 290.884C538.42 291.394 536.7 291.884 534.96 292.384C534.09 292.624 533.22 292.874 532.34 293.114C532.285 293.126 532.232 293.143 532.18 293.164C531.26 293.414 530.34 293.664 529.41 293.924C526.83 294.604 524.2 295.294 521.54 295.964C521.33 296.014 521.13 296.064 520.92 296.124C482.57 305.704 435.52 312.684 383.45 316.054C360.64 317.524 336.86 318.304 312.43 318.304C287.78 318.304 263.8 317.514 240.81 316.014C103.57 307.064 1.43015 272.984 1.43015 232.304C1.44095 229.829 1.81825 227.369 2.54977 225.004C2.60983 225.174 2.66988 225.334 2.7402 225.504C17.0097 262.984 118.28 293.274 249.68 300.664C269.81 301.804 290.66 302.394 312 302.394C333.43 302.394 354.36 301.794 374.57 300.654C505.86 293.234 607.03 262.934 621.25 225.484C621.49 224.884 621.7 224.284 621.88 223.684C622.894 226.445 623.418 229.362 623.43 232.304V232.304Z" fill="#3F3D56"/>
<path d="M91.6693 221.54C75.0266 221.54 57.3386 217.959 57.3386 211.323C57.3386 204.687 75.0266 201.106 91.6693 201.106C108.312 201.106 126 204.687 126 211.323C126 217.959 108.312 221.54 91.6693 221.54ZM91.6693 203.106C72.6163 203.106 59.3386 207.437 59.3386 211.323C59.3386 215.209 72.6163 219.54 91.6693 219.54C110.722 219.54 124 215.209 124 211.323C124 207.437 110.722 203.106 91.6693 203.106V203.106Z" fill="#3F3D56"/>
<path d="M162.669 267.54C146.027 267.54 128.339 263.959 128.339 257.323C128.339 250.687 146.027 247.106 162.669 247.106C179.312 247.106 197 250.687 197 257.323C197 263.959 179.312 267.54 162.669 267.54ZM162.669 249.106C143.616 249.106 130.339 253.437 130.339 257.323C130.339 261.209 143.616 265.54 162.669 265.54C181.722 265.54 195 261.209 195 257.323C195 253.437 181.722 249.106 162.669 249.106V249.106Z" fill="#3F3D56"/>
<path d="M531.669 220.54C515.027 220.54 497.339 216.959 497.339 210.323C497.339 203.687 515.027 200.106 531.669 200.106C548.312 200.106 566 203.687 566 210.323C566 216.959 548.312 220.54 531.669 220.54ZM531.669 202.106C512.616 202.106 499.339 206.437 499.339 210.323C499.339 214.209 512.616 218.54 531.669 218.54C550.722 218.54 564 214.209 564 210.323C564 206.437 550.722 202.106 531.669 202.106V202.106Z" fill="#3F3D56"/>
<path d="M460.669 267.54C444.027 267.54 426.339 263.959 426.339 257.323C426.339 250.687 444.027 247.106 460.669 247.106C477.312 247.106 495 250.687 495 257.323C495 263.959 477.312 267.54 460.669 267.54ZM460.669 249.106C441.616 249.106 428.339 253.437 428.339 257.323C428.339 261.209 441.616 265.54 460.669 265.54C479.722 265.54 493 261.209 493 257.323C493 253.437 479.722 249.106 460.669 249.106V249.106Z" fill="#3F3D56"/>
<path d="M311.669 289.54C295.027 289.54 277.339 285.959 277.339 279.323C277.339 272.687 295.027 269.106 311.669 269.106C328.312 269.106 346 272.687 346 279.323C346 285.959 328.312 289.54 311.669 289.54ZM311.669 271.106C292.616 271.106 279.339 275.437 279.339 279.323C279.339 283.209 292.616 287.54 311.669 287.54C330.722 287.54 344 283.209 344 279.323C344 275.437 330.722 271.106 311.669 271.106V271.106Z" fill="#3F3D56"/>
<path d="M336.978 492.717C360.181 492.717 378.99 473.907 378.99 450.704C378.99 427.501 360.181 408.692 336.978 408.692C313.775 408.692 294.966 427.501 294.966 450.704C294.966 473.907 313.775 492.717 336.978 492.717Z" fill="#2F2E41"/>
<path d="M321.002 478.307L300.555 488.546L306.27 499.958L326.717 489.719L321.002 478.307Z" fill="#2F2E41"/>
<path d="M308.966 498.8C310.178 496.961 307.186 492.849 302.282 489.616C297.378 486.382 292.419 485.252 291.207 487.091C289.994 488.93 292.987 493.042 297.891 496.275C302.795 499.509 307.753 500.639 308.966 498.8Z" fill="#2F2E41"/>
<path d="M352.954 478.307L347.239 489.719L367.686 499.958L373.401 488.546L352.954 478.307Z" fill="#2F2E41"/>
<path d="M376.065 496.275C380.969 493.042 383.962 488.93 382.749 487.091C381.537 485.252 376.578 486.382 371.674 489.616C366.77 492.849 363.777 496.961 364.99 498.8C366.202 500.639 371.161 499.509 376.065 496.275Z" fill="#2F2E41"/>
<path d="M334.037 454.786C341.967 454.786 348.395 448.358 348.395 440.428C348.395 432.498 341.967 426.069 334.037 426.069C326.107 426.069 319.678 432.498 319.678 440.428C319.678 448.358 326.107 454.786 334.037 454.786Z" fill="white"/>
<path d="M337.529 437.675C339.391 435.814 339.38 432.785 337.505 430.911C335.631 429.036 332.602 429.026 330.741 430.887C328.88 432.748 328.89 435.777 330.765 437.651C332.64 439.526 335.668 439.536 337.529 437.675Z" fill="#3F3D56"/>
<path d="M370.12 404.999C370.752 389.446 357.347 376.272 340.179 375.574C323.011 374.877 308.582 386.92 307.95 402.474C307.318 418.028 319.252 421.561 336.42 422.259C353.587 422.956 369.488 420.553 370.12 404.999Z" fill="#638FFF"/>
<path d="M394.337 472.703C397.1 470.331 393.214 461.272 385.657 452.469C378.101 443.667 369.734 438.454 366.971 440.826C364.208 443.198 368.093 452.258 375.65 461.06C383.207 469.863 391.573 475.076 394.337 472.703Z" fill="#2F2E41"/>
<path d="M298.423 461.06C305.98 452.258 309.866 443.198 307.102 440.826C304.339 438.454 295.973 443.667 288.416 452.469C280.859 461.272 276.973 470.331 279.737 472.703C282.5 475.076 290.866 469.863 298.423 461.06Z" fill="#2F2E41"/>
<path d="M348.517 467.261C348.971 469.758 348.415 472.335 346.97 474.422C345.526 476.51 343.311 477.938 340.813 478.393C338.316 478.848 335.74 478.291 333.652 476.847C331.564 475.402 330.136 473.187 329.681 470.69L329.678 470.671C328.736 465.469 332.758 463.628 337.96 462.686C343.163 461.745 347.575 462.059 348.517 467.261Z" fill="white"/>
<path d="M266 495C265.47 495 264.961 494.824 264.586 494.51C264.211 494.197 264 493.771 264 493.328V394.672C264 394.229 264.211 393.803 264.586 393.49C264.961 393.176 265.47 393 266 393C266.53 393 267.039 393.176 267.414 393.49C267.789 393.803 268 394.229 268 394.672V493.328C268 493.771 267.789 494.197 267.414 494.51C267.039 494.824 266.53 495 266 495Z" fill="#CCCCCC"/>
<path d="M237 586C236.47 586 235.961 585.829 235.586 585.525C235.211 585.221 235 584.808 235 584.378V514.622C235 514.192 235.211 513.779 235.586 513.475C235.961 513.171 236.47 513 237 513C237.53 513 238.039 513.171 238.414 513.475C238.789 513.779 239 514.192 239 514.622V584.378C239 584.808 238.789 585.221 238.414 585.525C238.039 585.829 237.53 586 237 586V586Z" fill="#CCCCCC"/>
<path d="M313 530.394C312.47 530.394 311.961 530.183 311.586 529.808C311.211 529.433 311 528.924 311 528.394V410.394C311 409.864 311.211 409.355 311.586 408.98C311.961 408.605 312.47 408.394 313 408.394C313.53 408.394 314.039 408.605 314.414 408.98C314.789 409.355 315 409.864 315 410.394V528.394C315 528.924 314.789 529.433 314.414 529.808C314.039 530.183 313.53 530.394 313 530.394Z" fill="#CCCCCC"/>
<path d="M285 597C284.47 597 283.961 596.83 283.586 596.527C283.211 596.224 283 595.813 283 595.385V556.615C283 556.187 283.211 555.776 283.586 555.473C283.961 555.17 284.47 555 285 555C285.53 555 286.039 555.17 286.414 555.473C286.789 555.776 287 556.187 287 556.615V595.385C287 595.813 286.789 596.224 286.414 596.527C286.039 596.83 285.53 597 285 597V597Z" fill="#CCCCCC"/>
<path d="M325 369C324.47 369 323.961 368.822 323.586 368.504C323.211 368.187 323 367.757 323 367.308V326.692C323 326.243 323.211 325.813 323.586 325.496C323.961 325.178 324.47 325 325 325C325.53 325 326.039 325.178 326.414 325.496C326.789 325.813 327 326.243 327 326.692V367.308C327 367.757 326.789 368.187 326.414 368.504C326.039 368.822 325.53 369 325 369V369Z" fill="#CCCCCC"/>
<path d="M225 407C224.47 407 223.961 406.826 223.586 406.516C223.211 406.205 223 405.785 223 405.346V365.654C223 365.215 223.211 364.795 223.586 364.484C223.961 364.174 224.47 364 225 364C225.53 364 226.039 364.174 226.414 364.484C226.789 364.795 227 365.215 227 365.654V405.346C227 405.785 226.789 406.205 226.414 406.516C226.039 406.826 225.53 407 225 407V407Z" fill="#CCCCCC"/>
<path d="M399 411C398.47 411 397.961 410.826 397.586 410.516C397.211 410.205 397 409.785 397 409.346V369.654C397 369.215 397.211 368.795 397.586 368.484C397.961 368.174 398.47 368 399 368C399.53 368 400.039 368.174 400.414 368.484C400.789 368.795 401 369.215 401 369.654V409.346C401 409.785 400.789 410.205 400.414 410.516C400.039 410.826 399.53 411 399 411Z" fill="#CCCCCC"/>
<path d="M396 540C395.47 540 394.961 539.83 394.586 539.528C394.211 539.225 394 538.815 394 538.387V491.613C394 491.185 394.211 490.775 394.586 490.472C394.961 490.17 395.47 490 396 490C396.53 490 397.039 490.17 397.414 490.472C397.789 490.775 398 491.185 398 491.613V538.387C398 538.815 397.789 539.225 397.414 539.528C397.039 539.83 396.53 540 396 540Z" fill="#CCCCCC"/>
<path d="M356 582C355.47 582 354.961 581.829 354.586 581.525C354.211 581.221 354 580.808 354 580.378V510.622C354 510.192 354.211 509.779 354.586 509.475C354.961 509.171 355.47 509 356 509C356.53 509 357.039 509.171 357.414 509.475C357.789 509.779 358 510.192 358 510.622V580.378C358 580.808 357.789 581.221 357.414 581.525C357.039 581.829 356.53 582 356 582Z" fill="#CCCCCC"/>
<path d="M363 457C362.47 457 361.961 456.822 361.586 456.505C361.211 456.189 361 455.759 361 455.311V355.689C361 355.241 361.211 354.811 361.586 354.495C361.961 354.178 362.47 354 363 354C363.53 354 364.039 354.178 364.414 354.495C364.789 354.811 365 355.241 365 355.689V455.311C365 455.759 364.789 456.189 364.414 456.505C364.039 456.822 363.53 457 363 457Z" fill="#CCCCCC"/>
<path d="M608.193 620.491C611.056 618.094 607.187 608.759 599.553 599.641C591.918 590.522 583.408 585.073 580.546 587.47C577.683 589.866 581.552 599.202 589.186 608.32C596.821 617.439 605.331 622.888 608.193 620.491Z" fill="#2F2E41"/>
<path d="M589.419 610.121C596.941 587.557 584.746 563.167 562.181 555.645C539.616 548.124 515.227 560.318 507.705 582.883C500.183 605.448 512.378 629.838 534.943 637.36C557.508 644.881 581.898 632.686 589.419 610.121Z" fill="#2F2E41"/>
<path d="M566.791 630.302H553.707V653.744H566.791V630.302Z" fill="#2F2E41"/>
<path d="M540.624 630.302H527.54V653.744H540.624V630.302Z" fill="#2F2E41"/>
<path d="M555.888 658.105C561.91 658.105 566.791 656.274 566.791 654.016C566.791 651.758 561.91 649.928 555.888 649.928C549.866 649.928 544.985 651.758 544.985 654.016C544.985 656.274 549.866 658.105 555.888 658.105Z" fill="#2F2E41"/>
<path d="M529.72 657.56C535.742 657.56 540.624 655.729 540.624 653.471C540.624 651.213 535.742 649.382 529.72 649.382C523.699 649.382 518.817 651.213 518.817 653.471C518.817 655.729 523.699 657.56 529.72 657.56Z" fill="#2F2E41"/>
<path d="M535.039 542.365C538.885 526.878 555.86 517.765 572.954 522.009C590.048 526.254 600.788 542.25 596.943 557.737C593.097 573.224 580.339 573.274 563.245 569.029C546.151 564.784 531.194 557.853 535.039 542.365Z" fill="#CCCCCC"/>
<path d="M519.51 585.747C521.11 582.373 513.696 575.507 502.951 570.411C492.206 565.315 482.198 563.918 480.598 567.291C478.998 570.664 486.412 577.53 497.157 582.627C507.903 587.723 517.91 589.12 519.51 585.747Z" fill="#2F2E41"/>
<path d="M542.124 601.773C550.054 601.773 556.482 595.345 556.482 587.415C556.482 579.485 550.054 573.056 542.124 573.056C534.194 573.056 527.765 579.485 527.765 587.415C527.765 595.345 534.194 601.773 542.124 601.773Z" fill="white"/>
<path d="M536.222 587.054C538.866 587.054 541.008 584.911 541.008 582.268C541.008 579.625 538.866 577.482 536.222 577.482C533.579 577.482 531.436 579.625 531.436 582.268C531.436 584.911 533.579 587.054 536.222 587.054Z" fill="#3F3D56"/>
<path d="M542 623.394C545.314 623.394 548 620.708 548 617.394C548 614.08 545.314 611.394 542 611.394C538.686 611.394 536 614.08 536 617.394C536 620.708 538.686 623.394 542 623.394Z" fill="white"/>
<path d="M671.531 658.394H435.531C435.266 658.394 435.012 658.289 434.824 658.101C434.637 657.914 434.531 657.659 434.531 657.394C434.531 657.129 434.637 656.874 434.824 656.687C435.012 656.499 435.266 656.394 435.531 656.394H671.531C671.797 656.394 672.051 656.499 672.239 656.687C672.426 656.874 672.531 657.129 672.531 657.394C672.531 657.659 672.426 657.914 672.239 658.101C672.051 658.289 671.797 658.394 671.531 658.394Z" fill="#3F3D56"/>
</g>
<defs>
<clipPath id="clip0">
<rect width="672.531" height="738.394" fill="white"/>
</clipPath>
</defs>
</svg>
